<?xml version="1.0" encoding="UTF-8" standalone="no"?>
<!-- Created with Inkscape (http://www.inkscape.org/) -->

<svg
   xmlns:dc="http://purl.org/dc/elements/1.1/"
   xmlns:cc="http://creativecommons.org/ns#"
   xmlns:rdf="http://www.w3.org/1999/02/22-rdf-syntax-ns#"
   xmlns:svg="http://www.w3.org/2000/svg"
   xmlns="http://www.w3.org/2000/svg"
   xmlns:sodipodi="http://sodipodi.sourceforge.net/DTD/sodipodi-0.dtd"
   xmlns:inkscape="http://www.inkscape.org/namespaces/inkscape"
   version="1.1"
   id="svg525"
   xml:space="preserve"
   width="291.15866"
   height="79.748535"
   viewBox="0 0 291.15866 79.748535"
   sodipodi:docname="H_CURIEN_quadri.svg"
   inkscape:version="0.92.3 (2405546, 2018-03-11)"><metadata
     id="metadata531"><rdf:RDF><cc:Work
         rdf:about=""><dc:format>image/svg+xml</dc:format><dc:type
           rdf:resource="http://purl.org/dc/dcmitype/StillImage" /><dc:title></dc:title></cc:Work></rdf:RDF></metadata><defs
     id="defs529"><clipPath
       clipPathUnits="userSpaceOnUse"
       id="clipPath551"><path
         d="m 47,55 h 31 v 4.812 H 47 Z"
         id="path549"
         inkscape:connector-curvature="0" /></clipPath><clipPath
       clipPathUnits="userSpaceOnUse"
       id="clipPath561"><path
         d="M 0,0 H 219 V 60 H 0 Z"
         id="path559"
         inkscape:connector-curvature="0" /></clipPath><clipPath
       clipPathUnits="userSpaceOnUse"
       id="clipPath573"><path
         d="m 84,54 h 55 v 5.812 H 84 Z"
         id="path571"
         inkscape:connector-curvature="0" /></clipPath><clipPath
       clipPathUnits="userSpaceOnUse"
       id="clipPath583"><path
         d="M 0,0 H 219 V 60 H 0 Z"
         id="path581"
         inkscape:connector-curvature="0" /></clipPath><clipPath
       clipPathUnits="userSpaceOnUse"
       id="clipPath615"><path
         d="m 138,54 h 18 v 5.812 h -18 z"
         id="path613"
         inkscape:connector-curvature="0" /></clipPath><clipPath
       clipPathUnits="userSpaceOnUse"
       id="clipPath625"><path
         d="M 0,0 H 219 V 60 H 0 Z"
         id="path623"
         inkscape:connector-curvature="0" /></clipPath><clipPath
       clipPathUnits="userSpaceOnUse"
       id="clipPath643"><path
         d="m 156,55 h 16 v 4.812 h -16 z"
         id="path641"
         inkscape:connector-curvature="0" /></clipPath><clipPath
       clipPathUnits="userSpaceOnUse"
       id="clipPath653"><path
         d="M 0,0 H 219 V 60 H 0 Z"
         id="path651"
         inkscape:connector-curvature="0" /></clipPath><clipPath
       clipPathUnits="userSpaceOnUse"
       id="clipPath671"><path
         d="m 172,55 h 31 v 4.812 h -31 z"
         id="path669"
         inkscape:connector-curvature="0" /></clipPath><clipPath
       clipPathUnits="userSpaceOnUse"
       id="clipPath681"><path
         d="M 0,0 H 219 V 60 H 0 Z"
         id="path679"
         inkscape:connector-curvature="0" /></clipPath><clipPath
       clipPathUnits="userSpaceOnUse"
       id="clipPath753"><path
         d="m 204,26 h 14.367 V 46 H 204 Z"
         id="path751"
         inkscape:connector-curvature="0" /></clipPath><clipPath
       clipPathUnits="userSpaceOnUse"
       id="clipPath763"><path
         d="M 0,0 H 219 V 60 H 0 Z"
         id="path761"
         inkscape:connector-curvature="0" /></clipPath></defs><sodipodi:namedview
     pagecolor="#ffffff"
     bordercolor="#666666"
     borderopacity="1"
     objecttolerance="10"
     gridtolerance="10"
     guidetolerance="10"
     inkscape:pageopacity="0"
     inkscape:pageshadow="2"
     inkscape:window-width="1920"
     inkscape:window-height="1025"
     id="namedview527"
     showgrid="false"
     inkscape:zoom="4.300061"
     inkscape:cx="168.44645"
     inkscape:cy="21.114186"
     inkscape:window-x="0"
     inkscape:window-y="0"
     inkscape:window-maximized="1"
     inkscape:current-layer="g533" /><g
     id="g533"
     inkscape:groupmode="layer"
     inkscape:label="H_CURIEN_quadri"
     transform="matrix(1.3333333,0,0,1.3333333,0,2.3270467e-6)"><g
       id="g535"><path
         d="M 21.477,13.461 V 9.109 L 8.684,9.086 v 4.375 l 3.425,2.211 -3.425,2.164 v 4.375 l 12.793,0.023 v -4.355 h -7.375 l -0.024,-0.043 3.125,-2.168 -3.125,-2.164 0.027,-0.043 z"
         style="fill:#e8510c;fill-opacity:1;fill-rule:nonzero;stroke:none"
         id="path537"
         inkscape:connector-curvature="0" /><path
         d="m 25.711,9.105 v 21.762 c 0,6.012 -4.773,10.899 -10.645,10.899 -5.867,0 -10.64,-4.887 -10.64,-10.899 V 9.105 H 0 v 21.762 c 0,8.508 6.758,15.43 15.066,15.43 8.309,0 15.071,-6.922 15.071,-15.43 V 9.105 Z"
         style="fill:#e8510c;fill-opacity:1;fill-rule:nonzero;stroke:none"
         id="path539"
         inkscape:connector-curvature="0" /><path
         d="M 0,0.355 H 30.137 V 4.73 H 0 Z"
         style="fill:#00355e;fill-opacity:1;fill-rule:nonzero;stroke:none"
         id="path541"
         inkscape:connector-curvature="0" /><path
         d="m 15.066,24.422 h -6.41 v 4.375 h 6.41 c 1.184,0 2.141,0.98 2.141,2.187 0,1.207 -0.957,2.188 -2.141,2.188 h -2.132 v 4.375 h 2.132 c 3.543,0 6.411,-2.938 6.411,-6.563 0,-3.625 -2.868,-6.562 -6.411,-6.562"
         style="fill:#e8510c;fill-opacity:1;fill-rule:nonzero;stroke:none"
         id="path543"
         inkscape:connector-curvature="0" /></g><g
       id="g545"><g
         id="g547"
         clip-path="url(#clipPath551)"><g
           id="g553"><g
             id="g555"><g
               id="g557"
               clip-path="url(#clipPath561)"><g
                 id="g563"><path
                   d="m 47.34,55.238 h 30.375 v 4.523 H 47.34 Z"
                   style="fill:#00355e;fill-opacity:1;fill-rule:nonzero;stroke:none"
                   id="path565"
                   inkscape:connector-curvature="0" /></g></g></g></g></g></g><g
       id="g567"><g
         id="g569"
         clip-path="url(#clipPath573)"><g
           id="g575"><g
             id="g577"><g
               id="g579"
               clip-path="url(#clipPath583)"><g
                 id="g585"><path
                   d="m 87.438,55 v 3.422 c 0,0.594 -0.313,0.906 -1.047,0.906 -0.75,0 -1.063,-0.312 -1.063,-0.906 V 55 h -0.609 v 3.469 c 0,0.781 0.437,1.422 1.672,1.422 1.218,0 1.656,-0.641 1.656,-1.422 V 55 Z"
                   style="fill:#00355e;fill-opacity:1;fill-rule:nonzero;stroke:none"
                   id="path587"
                   inkscape:connector-curvature="0" /><path
                   d="m 91.371,59.188 h 0.813 l 1.203,-3.266 0.093,3.89 h 0.579 L 93.902,55 H 93.137 L 91.777,58.719 90.418,55 h -0.766 l -0.156,4.812 h 0.578 l 0.094,-3.89 z"
                   style="fill:#00355e;fill-opacity:1;fill-rule:nonzero;stroke:none"
                   id="path589"
                   inkscape:connector-curvature="0" /><path
                   d="M 98.473,59.812 H 99.16 L 97.941,58 c 0.547,-0.156 0.75,-0.547 0.75,-1.125 V 56.188 C 98.691,55.453 98.332,55 97.332,55 h -1.797 v 4.812 h 0.61 v -1.734 h 1.156 z m -0.391,-3.609 v 0.688 c 0,0.468 -0.187,0.64 -0.766,0.64 h -1.171 v -1.969 h 1.171 c 0.579,0 0.766,0.157 0.766,0.641 z"
                   style="fill:#00355e;fill-opacity:1;fill-rule:nonzero;stroke:none"
                   id="path591"
                   inkscape:connector-curvature="0" /><path
                   d="m 102.07,57.484 c 0,0.485 0.391,0.875 0.86,0.875 0.468,0 0.859,-0.39 0.859,-0.875 0,-0.484 -0.391,-0.875 -0.859,-0.875 -0.469,0 -0.86,0.391 -0.86,0.875 z"
                   style="fill:#00355e;fill-opacity:1;fill-rule:nonzero;stroke:none"
                   id="path593"
                   inkscape:connector-curvature="0" /><path
                   d="m 107.562,56.391 c 0,-0.672 0.266,-0.891 1.032,-0.891 0.281,0 0.734,0.031 1.094,0.094 l 0.062,-0.532 c -0.328,-0.078 -0.828,-0.124 -1.188,-0.124 -1.14,0 -1.593,0.5 -1.593,1.406 v 2.125 c 0,0.906 0.453,1.422 1.593,1.422 0.36,0 0.86,-0.063 1.188,-0.141 l -0.062,-0.531 c -0.36,0.062 -0.813,0.109 -1.094,0.109 -0.766,0 -1.032,-0.219 -1.032,-0.89 z"
                   style="fill:#00355e;fill-opacity:1;fill-rule:nonzero;stroke:none"
                   id="path595"
                   inkscape:connector-curvature="0" /><path
                   d="m 113.676,59.812 h 0.828 V 55 h -0.578 v 4.125 L 111.895,55 h -0.844 v 4.812 h 0.578 v -4.093 z"
                   style="fill:#00355e;fill-opacity:1;fill-rule:nonzero;stroke:none"
                   id="path597"
                   inkscape:connector-curvature="0" /><path
                   d="m 118.996,59.812 h 0.688 L 118.465,58 c 0.547,-0.156 0.75,-0.547 0.75,-1.125 v -0.687 c 0,-0.735 -0.36,-1.188 -1.36,-1.188 h -1.796 v 4.812 h 0.609 v -1.734 h 1.156 z m -0.391,-3.609 v 0.688 c 0,0.468 -0.187,0.64 -0.765,0.64 h -1.172 v -1.969 h 1.172 c 0.578,0 0.765,0.157 0.765,0.641 z"
                   style="fill:#00355e;fill-opacity:1;fill-rule:nonzero;stroke:none"
                   id="path599"
                   inkscape:connector-curvature="0" /><path
                   d="m 123.613,58.578 c 0,-0.953 -0.062,-1.14 -1.312,-1.453 -0.922,-0.234 -0.922,-0.266 -0.922,-0.922 0,-0.562 0.141,-0.719 0.906,-0.719 0.391,0 0.828,0.047 1.203,0.141 l 0.047,-0.531 c -0.375,-0.11 -0.859,-0.156 -1.265,-0.156 -1.157,0 -1.5,0.406 -1.5,1.234 0,1 0.14,1.219 1.265,1.484 0.969,0.219 0.969,0.282 0.969,0.922 0,0.563 -0.141,0.766 -0.906,0.766 -0.422,0 -0.875,-0.078 -1.313,-0.219 l -0.094,0.5 c 0.407,0.172 0.938,0.266 1.391,0.266 1.297,0 1.531,-0.485 1.531,-1.313 z"
                   style="fill:#00355e;fill-opacity:1;fill-rule:nonzero;stroke:none"
                   id="path601"
                   inkscape:connector-curvature="0" /><path
                   d="m 126.75,57.484 c 0,0.485 0.391,0.875 0.859,0.875 0.469,0 0.86,-0.39 0.86,-0.875 0,-0.484 -0.391,-0.875 -0.86,-0.875 -0.468,0 -0.859,0.391 -0.859,0.875 z"
                   style="fill:#00355e;fill-opacity:1;fill-rule:nonzero;stroke:none"
                   id="path603"
                   inkscape:connector-curvature="0" /><path
                   d="m 131.727,57.688 c 0.359,0 0.671,0 1.14,0.015 0.578,0.016 0.719,0.203 0.719,0.625 v 0.328 c 0,0.5 -0.141,0.688 -0.859,0.688 -0.329,0 -0.75,-0.032 -1.11,-0.11 l -0.062,0.485 c 0.359,0.125 0.828,0.172 1.187,0.172 1.125,0 1.438,-0.438 1.438,-1.203 v -0.422 c 0,-0.625 -0.266,-1.047 -1.094,-1.078 -0.328,-0.016 -0.469,-0.016 -0.766,-0.032 v -1.468 h 1.813 v -0.532 h -2.406 z"
                   style="fill:#00355e;fill-opacity:1;fill-rule:nonzero;stroke:none"
                   id="path605"
                   inkscape:connector-curvature="0" /><path
                   d="m 135.574,57.688 c 0.36,0 0.672,0 1.141,0.015 0.578,0.016 0.719,0.203 0.719,0.625 v 0.328 c 0,0.5 -0.141,0.688 -0.86,0.688 -0.328,0 -0.75,-0.032 -1.109,-0.11 l -0.063,0.485 c 0.36,0.125 0.828,0.172 1.188,0.172 1.125,0 1.437,-0.438 1.437,-1.203 v -0.422 c 0,-0.625 -0.265,-1.047 -1.093,-1.078 -0.329,-0.016 -0.469,-0.016 -0.766,-0.032 v -1.468 h 1.812 v -0.532 h -2.406 z"
                   style="fill:#00355e;fill-opacity:1;fill-rule:nonzero;stroke:none"
                   id="path607"
                   inkscape:connector-curvature="0" /></g></g></g></g></g></g><g
       id="g609"><g
         id="g611"
         clip-path="url(#clipPath615)"><g
           id="g617"><g
             id="g619"><g
               id="g621"
               clip-path="url(#clipPath625)"><g
                 id="g627"><path
                   d="m 140.031,55.844 v 3.968 h 0.594 v -4.656 h -0.531 l -1.219,0.719 0.25,0.484 z"
                   style="fill:#00355e;fill-opacity:1;fill-rule:nonzero;stroke:none"
                   id="path629"
                   inkscape:connector-curvature="0" /><path
                   d="m 142.695,56.719 c 0,-0.875 0.266,-1.11 1.36,-1.11 0.156,0 0.437,0.016 0.609,0.063 l 0.063,-0.516 c -0.219,-0.047 -0.547,-0.078 -0.766,-0.078 -1.328,0 -1.844,0.438 -1.844,1.625 v 2.063 c 0,0.687 0.36,1.125 1.375,1.125 1.125,0 1.344,-0.532 1.344,-1.375 v -0.219 c 0,-0.766 -0.313,-1.156 -1.203,-1.156 -0.313,0 -0.703,0.078 -0.938,0.171 z m 0.875,0.953 c 0.516,0 0.688,0.172 0.688,0.625 v 0.391 c 0,0.468 -0.172,0.656 -0.766,0.656 -0.547,0 -0.797,-0.141 -0.797,-0.656 v -0.829 c 0.235,-0.093 0.578,-0.187 0.875,-0.187 z"
                   style="fill:#00355e;fill-opacity:1;fill-rule:nonzero;stroke:none"
                   id="path631"
                   inkscape:connector-curvature="0" /><path
                   d="m 147.898,57.484 c 0,0.485 0.391,0.875 0.86,0.875 0.469,0 0.859,-0.39 0.859,-0.875 0,-0.484 -0.39,-0.875 -0.859,-0.875 -0.469,0 -0.86,0.391 -0.86,0.875 z"
                   style="fill:#00355e;fill-opacity:1;fill-rule:nonzero;stroke:none"
                   id="path633"
                   inkscape:connector-curvature="0" /><path
                   d="m 155.641,58.578 c 0,-0.953 -0.063,-1.14 -1.313,-1.453 -0.922,-0.234 -0.922,-0.266 -0.922,-0.922 0,-0.562 0.141,-0.719 0.906,-0.719 0.391,0 0.829,0.047 1.204,0.141 l 0.046,-0.531 c -0.374,-0.11 -0.859,-0.156 -1.265,-0.156 -1.156,0 -1.5,0.406 -1.5,1.234 0,1 0.141,1.219 1.265,1.484 0.969,0.219 0.969,0.282 0.969,0.922 0,0.563 -0.14,0.766 -0.906,0.766 -0.422,0 -0.875,-0.078 -1.313,-0.219 l -0.093,0.5 c 0.406,0.172 0.937,0.266 1.39,0.266 1.297,0 1.532,-0.485 1.532,-1.313 z"
                   style="fill:#00355e;fill-opacity:1;fill-rule:nonzero;stroke:none"
                   id="path635"
                   inkscape:connector-curvature="0" /></g></g></g></g></g></g><g
       id="g637"><g
         id="g639"
         clip-path="url(#clipPath643)"><g
           id="g645"><g
             id="g647"><g
               id="g649"
               clip-path="url(#clipPath653)"><g
                 id="g655"><path
                   d="m 159.027,55 h -0.812 l -1.578,4.812 h 0.609 l 0.375,-1.156 h 2 l 0.391,1.156 h 0.609 z m 0.438,3.109 h -1.672 l 0.828,-2.656 z"
                   style="fill:#00355e;fill-opacity:1;fill-rule:nonzero;stroke:none"
                   id="path657"
                   inkscape:connector-curvature="0" /><path
                   d="m 161.812,55 h 0.594 v 4.812 h -0.594 z"
                   style="fill:#00355e;fill-opacity:1;fill-rule:nonzero;stroke:none"
                   id="path659"
                   inkscape:connector-curvature="0" /><path
                   d="m 166.617,59.812 h 0.828 V 55 h -0.578 v 4.125 L 164.836,55 h -0.844 v 4.812 h 0.578 v -4.093 z"
                   style="fill:#00355e;fill-opacity:1;fill-rule:nonzero;stroke:none"
                   id="path661"
                   inkscape:connector-curvature="0" /><path
                   d="m 169.953,59.812 h 0.609 v -4.25 h 1.391 V 55 h -3.406 v 0.562 h 1.406 z"
                   style="fill:#00355e;fill-opacity:1;fill-rule:nonzero;stroke:none"
                   id="path663"
                   inkscape:connector-curvature="0" /></g></g></g></g></g></g><g
       id="g665"><g
         id="g667"
         clip-path="url(#clipPath671)"><g
           id="g673"><g
             id="g675"><g
               id="g677"
               clip-path="url(#clipPath681)"><g
                 id="g683"><path
                   d="m 172.133,57.547 h 1.766 v 0.5 h -1.766 z"
                   style="fill:#00355e;fill-opacity:1;fill-rule:nonzero;stroke:none"
                   id="path685"
                   inkscape:connector-curvature="0" /><path
                   d="m 175.266,59.812 h 2.781 V 59.25 h -2.172 v -1.625 h 2 v -0.563 h -2 v -1.5 h 2.156 V 55 h -2.765 z"
                   style="fill:#00355e;fill-opacity:1;fill-rule:nonzero;stroke:none"
                   id="path687"
                   inkscape:connector-curvature="0" /><path
                   d="m 180.379,59.812 h 0.609 v -4.25 h 1.391 V 55 h -3.406 v 0.562 h 1.406 z"
                   style="fill:#00355e;fill-opacity:1;fill-rule:nonzero;stroke:none"
                   id="path689"
                   inkscape:connector-curvature="0" /><path
                   d="m 183.52,55 h 0.594 v 4.812 h -0.594 z"
                   style="fill:#00355e;fill-opacity:1;fill-rule:nonzero;stroke:none"
                   id="path691"
                   inkscape:connector-curvature="0" /><path
                   d="m 185.699,59.812 h 2.781 V 59.25 h -2.171 v -1.625 h 2 v -0.563 h -2 v -1.5 h 2.156 V 55 h -2.766 z"
                   style="fill:#00355e;fill-opacity:1;fill-rule:nonzero;stroke:none"
                   id="path693"
                   inkscape:connector-curvature="0" /><path
                   d="m 192.484,59.812 h 0.828 V 55 h -0.578 v 4.125 L 190.703,55 h -0.844 v 4.812 h 0.579 v -4.093 z"
                   style="fill:#00355e;fill-opacity:1;fill-rule:nonzero;stroke:none"
                   id="path695"
                   inkscape:connector-curvature="0" /><path
                   d="m 197.488,59.812 h 0.828 V 55 h -0.578 v 4.125 L 195.707,55 h -0.844 v 4.812 h 0.578 v -4.093 z"
                   style="fill:#00355e;fill-opacity:1;fill-rule:nonzero;stroke:none"
                   id="path697"
                   inkscape:connector-curvature="0" /><path
                   d="m 199.867,59.812 h 2.781 V 59.25 h -2.171 v -1.625 h 2 v -0.563 h -2 v -1.5 h 2.156 V 55 h -2.766 z"
                   style="fill:#00355e;fill-opacity:1;fill-rule:nonzero;stroke:none"
                   id="path699"
                   inkscape:connector-curvature="0" /></g></g></g></g></g></g><g
       id="g701"><path
         d="m 47.512,0.348 h 5.34 v 14.949 h 4.003 v 4.422 h -9.343 z"
         style="fill:#00355e;fill-opacity:1;fill-rule:nonzero;stroke:none"
         id="path703"
         inkscape:connector-curvature="0" /><path
         d="m 65.004,11.953 h 1.48 L 65.742,4.77 Z m 7.84,7.766 h -5.567 l -0.371,-3.434 h -2.355 l -0.34,3.434 h -5.566 l 3.75,-19.371 h 6.699 z"
         style="fill:#00355e;fill-opacity:1;fill-rule:nonzero;stroke:none"
         id="path705"
         inkscape:connector-curvature="0" /><path
         d="m 81.25,15.5 c 0.539,0 0.797,-0.289 0.797,-0.754 v -2.035 c 0,-0.523 -0.285,-0.758 -0.797,-0.758 H 80 V 15.5 Z M 81.023,7.996 c 0.481,0 0.68,-0.262 0.68,-0.723 V 5.234 c 0,-0.406 -0.199,-0.668 -0.68,-0.668 H 80 v 3.43 z M 74.832,0.352 h 7.641 c 3.007,0 4.285,1.539 4.285,3.98 V 6.34 c 0,1.426 -0.453,2.676 -1.903,3.316 1.622,0.348 2.473,1.656 2.473,3.633 v 1.895 c 0,2.761 -1.305,4.535 -4.828,4.535 h -7.668 z"
         style="fill:#00355e;fill-opacity:1;fill-rule:nonzero;stroke:none"
         id="path707"
         inkscape:connector-curvature="0" /><path
         d="M 96.898,14.57 V 5.496 c 0,-0.695 -0.281,-1.133 -1.019,-1.133 -0.742,0 -1.024,0.438 -1.024,1.133 v 9.074 c 0,0.7 0.282,1.137 1.024,1.137 0.738,0 1.019,-0.437 1.019,-1.137 M 89.516,14.047 V 6.02 c 0,-3.606 1.703,-6.02 6.363,-6.02 4.656,0 6.359,2.414 6.359,6.02 v 8.027 c 0,3.609 -1.703,6.019 -6.359,6.019 -4.66,0 -6.363,-2.41 -6.363,-6.019"
         style="fill:#00355e;fill-opacity:1;fill-rule:nonzero;stroke:none"
         id="path709"
         inkscape:connector-curvature="0" /><path
         d="m 111.242,9.336 c 0.594,0 0.879,-0.293 0.879,-0.902 V 5.645 c 0,-0.614 -0.285,-0.903 -0.879,-0.903 h -1.164 v 4.594 z m -0.738,4.187 h -0.426 v 6.196 h -5.281 V 0.352 h 7.664 c 3.723,0 5,1.769 5,4.882 v 3.547 c 0,1.864 -0.539,3.086 -1.762,3.84 l 2.387,7.098 h -5.594 z"
         style="fill:#00355e;fill-opacity:1;fill-rule:nonzero;stroke:none"
         id="path711"
         inkscape:connector-curvature="0" /><path
         d="m 125.953,11.953 h 1.477 L 126.691,4.77 Z m 7.836,7.766 h -5.566 l -0.368,-3.434 H 125.5 l -0.344,3.434 h -5.562 L 123.34,0.348 h 6.703 z"
         style="fill:#00355e;fill-opacity:1;fill-rule:nonzero;stroke:none"
         id="path713"
         inkscape:connector-curvature="0" /><path
         d="m 136.973,4.828 h -3.094 v -4.48 h 11.531 v 4.48 h -3.098 v 14.891 h -5.339 z"
         style="fill:#00355e;fill-opacity:1;fill-rule:nonzero;stroke:none"
         id="path715"
         inkscape:connector-curvature="0" /><path
         d="M 154.582,14.57 V 5.496 c 0,-0.695 -0.285,-1.133 -1.023,-1.133 -0.739,0 -1.024,0.438 -1.024,1.133 v 9.074 c 0,0.7 0.285,1.137 1.024,1.137 0.738,0 1.023,-0.437 1.023,-1.137 m -7.383,-0.523 V 6.02 c 0,-3.606 1.703,-6.02 6.36,-6.02 4.66,0 6.359,2.414 6.359,6.02 v 8.027 c 0,3.609 -1.699,6.019 -6.359,6.019 -4.657,0 -6.36,-2.41 -6.36,-6.019"
         style="fill:#00355e;fill-opacity:1;fill-rule:nonzero;stroke:none"
         id="path717"
         inkscape:connector-curvature="0" /><path
         d="m 162.535,0.348 h 5.336 v 19.371 h -5.336 z"
         style="fill:#00355e;fill-opacity:1;fill-rule:nonzero;stroke:none"
         id="path719"
         inkscape:connector-curvature="0" /><path
         d="m 177.215,9.336 c 0.597,0 0.883,-0.293 0.883,-0.902 V 5.645 c 0,-0.614 -0.286,-0.903 -0.883,-0.903 h -1.164 v 4.594 z m -0.738,4.187 h -0.426 v 6.196 h -5.278 V 0.352 h 7.665 c 3.718,0 4.996,1.769 4.996,4.882 v 3.547 c 0,1.864 -0.536,3.086 -1.758,3.84 l 2.383,7.098 h -5.594 z"
         style="fill:#00355e;fill-opacity:1;fill-rule:nonzero;stroke:none"
         id="path721"
         inkscape:connector-curvature="0" /><path
         d="m 186.137,0.348 h 10.336 V 4.77 h -5 v 2.996 h 4.515 v 4.422 h -4.515 v 3.109 h 5.027 v 4.422 h -10.363 z"
         style="fill:#00355e;fill-opacity:1;fill-rule:nonzero;stroke:none"
         id="path723"
         inkscape:connector-curvature="0" /><path
         d="m 47.512,26.426 h 5.34 v 7.562 h 2.128 v -7.562 h 5.34 v 19.367 h -5.34 v -7.211 h -2.128 v 7.211 h -5.34 z"
         style="fill:#e8510c;fill-opacity:1;fill-rule:nonzero;stroke:none"
         id="path725"
         inkscape:connector-curvature="0" /><path
         d="M 63.105,40.648 V 26.426 h 5.336 v 14.25 c 0,0.668 0.286,1.047 1.024,1.047 0.738,0 1.023,-0.379 1.023,-1.016 V 26.426 h 5.336 v 14.222 c 0,3.258 -1.902,5.497 -6.359,5.497 -4.457,0 -6.36,-2.239 -6.36,-5.497"
         style="fill:#e8510c;fill-opacity:1;fill-rule:nonzero;stroke:none"
         id="path727"
         inkscape:connector-curvature="0" /><path
         d="m 85.027,41.578 c 0.543,0 0.797,-0.293 0.797,-0.758 v -2.035 c 0,-0.523 -0.285,-0.758 -0.797,-0.758 h -1.25 v 3.551 z m -0.226,-7.504 c 0.484,0 0.683,-0.262 0.683,-0.726 v -2.036 c 0,-0.41 -0.199,-0.671 -0.683,-0.671 h -1.024 v 3.433 z m -6.192,-7.648 h 7.641 c 3.008,0 4.289,1.543 4.289,3.984 v 2.008 c 0,1.426 -0.457,2.676 -1.906,3.312 1.621,0.352 2.472,1.661 2.472,3.637 v 1.891 c 0,2.762 -1.304,4.539 -4.828,4.539 h -7.668 z"
         style="fill:#e8510c;fill-opacity:1;fill-rule:nonzero;stroke:none"
         id="path729"
         inkscape:connector-curvature="0" /><path
         d="m 93.438,26.426 h 10.335 v 4.418 h -5 v 2.996 h 4.516 v 4.422 h -4.516 v 3.113 h 5.028 v 4.418 H 93.438 Z"
         style="fill:#e8510c;fill-opacity:1;fill-rule:nonzero;stroke:none"
         id="path731"
         inkscape:connector-curvature="0" /><path
         d="m 112.746,35.41 c 0.598,0 0.883,-0.289 0.883,-0.898 v -2.793 c 0,-0.614 -0.285,-0.903 -0.883,-0.903 h -1.164 v 4.594 z m -0.734,4.192 h -0.43 v 6.195 h -5.281 V 26.426 h 7.668 c 3.719,0 5,1.773 5,4.886 v 3.547 c 0,1.864 -0.543,3.082 -1.762,3.84 l 2.387,7.098 h -5.598 z"
         style="fill:#e8510c;fill-opacity:1;fill-rule:nonzero;stroke:none"
         id="path733"
         inkscape:connector-curvature="0" /><path
         d="m 123.766,30.906 h -3.094 v -4.48 h 11.531 v 4.48 h -3.098 v 14.891 h -5.339 z"
         style="fill:#e8510c;fill-opacity:1;fill-rule:nonzero;stroke:none"
         id="path735"
         inkscape:connector-curvature="0" /><path
         d="m 147.199,41.52 c 0.821,0 1.844,-0.145 2.754,-0.321 l 0.367,4.481 c -1.05,0.261 -3.234,0.465 -4.312,0.465 -4.176,0 -5.852,-1.981 -5.852,-5.817 v -8.433 c 0,-3.84 1.676,-5.817 5.852,-5.817 1.078,0 3.262,0.203 4.312,0.465 l -0.367,4.477 c -0.91,-0.176 -1.933,-0.317 -2.754,-0.317 -1.222,0 -1.676,0.52 -1.676,1.684 v 7.445 c 0,1.164 0.454,1.688 1.676,1.688"
         style="fill:#e8510c;fill-opacity:1;fill-rule:nonzero;stroke:none"
         id="path737"
         inkscape:connector-curvature="0" /><path
         d="M 152.652,40.648 V 26.426 h 5.34 v 14.25 c 0,0.668 0.281,1.047 1.02,1.047 0.742,0 1.023,-0.379 1.023,-1.016 V 26.426 h 5.34 v 14.222 c 0,3.258 -1.902,5.497 -6.363,5.497 -4.457,0 -6.36,-2.239 -6.36,-5.497"
         style="fill:#e8510c;fill-opacity:1;fill-rule:nonzero;stroke:none"
         id="path739"
         inkscape:connector-curvature="0" /><path
         d="m 174.605,35.41 c 0.598,0 0.879,-0.289 0.879,-0.898 v -2.793 c 0,-0.614 -0.281,-0.903 -0.879,-0.903 h -1.164 v 4.594 z m -0.738,4.192 h -0.426 v 6.195 h -5.285 V 26.426 h 7.672 c 3.719,0 4.996,1.773 4.996,4.886 v 3.547 c 0,1.864 -0.539,3.082 -1.762,3.84 l 2.387,7.098 h -5.594 z"
         style="fill:#e8510c;fill-opacity:1;fill-rule:nonzero;stroke:none"
         id="path741"
         inkscape:connector-curvature="0" /><path
         d="m 183.578,26.426 h 5.34 v 19.367 h -5.34 z"
         style="fill:#e8510c;fill-opacity:1;fill-rule:nonzero;stroke:none"
         id="path743"
         inkscape:connector-curvature="0" /><path
         d="m 191.816,26.426 h 10.336 v 4.418 h -4.996 v 2.996 h 4.516 v 4.422 h -4.516 v 3.113 h 5.024 v 4.418 h -10.364 z"
         style="fill:#e8510c;fill-opacity:1;fill-rule:nonzero;stroke:none"
         id="path745"
         inkscape:connector-curvature="0" /></g><g
       id="g747"><g
         id="g749"
         clip-path="url(#clipPath753)"><g
           id="g755"><g
             id="g757"><g
               id="g759"
               clip-path="url(#clipPath763)"><g
                 id="g765"><path
                   d="m 204.68,26.426 h 5.226 l 3.297,7.969 v -7.969 h 5.168 v 19.367 h -5.226 l -3.293,-7.969 v 7.969 h -5.172 z"
                   style="fill:#e8510c;fill-opacity:1;fill-rule:nonzero;stroke:none"
                   id="path767"
                   inkscape:connector-curvature="0" /></g></g></g></g></g></g></g></svg>